<svg width="121" height="45" viewBox="0 0 121 45" fill="none" xmlns="http://www.w3.org/2000/svg">
<path d="M24.85 6.1C23.0167 7.7 21.3833 9.66667 19.95 12C18.55 14.3333 17.3667 16.8167 16.4 19.45C15.4667 22.0833 14.7333 24.75 14.2 27.45C13.7 30.15 13.4333 32.6667 13.4 35H5.8C6.2 29.7667 7.41667 24.7333 9.45 19.9C11.5167 15.0667 14.2167 10.6333 17.55 6.6H0.95V-2.38419e-06H24.85V6.1Z" fill="#008000"/>
<path d="M56.1492 38.2C55.3826 40.3 54.3159 41.8 52.9492 42.7C51.5826 43.6 49.6826 44.05 47.2492 44.05C46.5159 44.05 45.7826 44.0167 45.0492 43.95C44.3492 43.9167 43.6326 43.8667 42.8992 43.8V37.95C43.5659 38.0167 44.2492 38.0833 44.9492 38.15C45.6492 38.2167 46.3492 38.2333 47.0492 38.2C47.9826 38.1 48.6659 37.7333 49.0992 37.1C49.5659 36.4667 49.7992 35.7667 49.7992 35C49.7992 34.4333 49.6992 33.9 49.4992 33.4L40.4492 9.15H47.9992L53.8492 26.85H53.9492L59.5992 9.15H66.9492L56.1492 38.2ZM86.727 19.3C86.3936 17.5 85.7936 16.1333 84.927 15.2C84.0936 14.2667 82.8103 13.8 81.077 13.8C79.9436 13.8 78.9936 14 78.227 14.4C77.4936 14.7667 76.8936 15.2333 76.427 15.8C75.9936 16.3667 75.677 16.9667 75.477 17.6C75.3103 18.2333 75.2103 18.8 75.177 19.3H86.727ZM75.177 23.8C75.277 26.1 75.8603 27.7667 76.927 28.8C77.9936 29.8333 79.527 30.35 81.527 30.35C82.9603 30.35 84.1936 30 85.227 29.3C86.2603 28.5667 86.8936 27.8 87.127 27H93.377C92.377 30.1 90.8436 32.3167 88.777 33.65C86.7103 34.9833 84.2103 35.65 81.277 35.65C79.2436 35.65 77.4103 35.3333 75.777 34.7C74.1436 34.0333 72.7603 33.1 71.627 31.9C70.4936 30.7 69.6103 29.2667 68.977 27.6C68.377 25.9333 68.077 24.1 68.077 22.1C68.077 20.1667 68.3936 18.3667 69.027 16.7C69.6603 15.0333 70.5603 13.6 71.727 12.4C72.8936 11.1667 74.277 10.2 75.877 9.5C77.5103 8.8 79.3103 8.45 81.277 8.45C83.477 8.45 85.3936 8.88333 87.027 9.75C88.6603 10.5833 89.9936 11.7167 91.027 13.15C92.0936 14.5833 92.8603 16.2167 93.327 18.05C93.7936 19.8833 93.9603 21.8 93.827 23.8H75.177ZM103.538 26.6C103.538 27.3667 103.688 28.0333 103.988 28.6C104.321 29.1333 104.738 29.5833 105.238 29.95C105.738 30.2833 106.305 30.5333 106.938 30.7C107.605 30.8667 108.288 30.95 108.988 30.95C109.488 30.95 110.005 30.9 110.538 30.8C111.105 30.6667 111.605 30.4833 112.038 30.25C112.505 29.9833 112.888 29.65 113.188 29.25C113.488 28.8167 113.638 28.2833 113.638 27.65C113.638 26.5833 112.921 25.7833 111.488 25.25C110.088 24.7167 108.121 24.1833 105.588 23.65C104.555 23.4167 103.538 23.15 102.538 22.85C101.571 22.5167 100.705 22.1 99.9379 21.6C99.1712 21.0667 98.5546 20.4167 98.0879 19.65C97.6212 18.85 97.3879 17.8833 97.3879 16.75C97.3879 15.0833 97.7046 13.7167 98.3379 12.65C99.0046 11.5833 99.8712 10.75 100.938 10.15C102.005 9.51667 103.205 9.08333 104.538 8.85C105.871 8.58333 107.238 8.45 108.638 8.45C110.038 8.45 111.388 8.58333 112.688 8.85C114.021 9.11667 115.205 9.56666 116.238 10.2C117.271 10.8333 118.121 11.6833 118.788 12.75C119.488 13.7833 119.905 15.1 120.038 16.7H113.288C113.188 15.3333 112.671 14.4167 111.738 13.95C110.805 13.45 109.705 13.2 108.438 13.2C108.038 13.2 107.605 13.2333 107.138 13.3C106.671 13.3333 106.238 13.4333 105.838 13.6C105.471 13.7667 105.155 14.0167 104.888 14.35C104.621 14.65 104.488 15.0667 104.488 15.6C104.488 16.2333 104.721 16.75 105.188 17.15C105.655 17.55 106.255 17.8833 106.988 18.15C107.755 18.3833 108.621 18.6 109.588 18.8C110.555 19 111.538 19.2167 112.538 19.45C113.571 19.6833 114.571 19.9667 115.538 20.3C116.538 20.6333 117.421 21.0833 118.188 21.65C118.955 22.1833 119.571 22.8667 120.038 23.7C120.505 24.5 120.738 25.5 120.738 26.7C120.738 28.4 120.388 29.8333 119.688 31C119.021 32.1333 118.138 33.05 117.038 33.75C115.938 34.45 114.671 34.9333 113.238 35.2C111.838 35.5 110.405 35.65 108.938 35.65C107.438 35.65 105.971 35.5 104.538 35.2C103.105 34.9 101.821 34.4 100.688 33.7C99.5879 33 98.6712 32.0833 97.9379 30.95C97.2379 29.7833 96.8546 28.3333 96.7879 26.6H103.538Z" fill="black"/>
</svg>
